<svg id="Layer_1" xmlns="http://www.w3.org/2000/svg" viewBox="0 0 24 24"><style>.st0{fill:#bd081c}</style><path class="st0" d="M0 0v24h24V0H0zm12 20c-.8 0-1.6-.1-2.4-.4.3-.5.8-1.4 1-2.1l.5-1.9c.3.5 1 .9 1.8.9 2.4 0 4.2-2.2 4.2-5C17.1 8.9 15 7 12.2 7c-3.5 0-5.3 2.3-5.3 4.8 0 1.2.6 2.6 1.6 3.1.2.1.2 0 .3-.1l.2-.9c0-.1 0-.1-.1-.2-.3-.4-.6-1.1-.6-1.8 0-1.8 1.3-3.5 3.6-3.5 2 0 3.3 1.3 3.3 3.3 0 2.2-1.1 3.7-2.5 3.7-.8 0-1.4-.6-1.2-1.4.2-1 .7-2 .7-2.7 0-.6-.3-1.1-1-1.1-.8 0-1.4.8-1.4 1.9 0 .7.2 1.2.2 1.2s-.8 3.4-.9 4c-.2.7-.1 1.7 0 2.3C6.1 18.3 4 15.4 4 12c0-4.4 3.6-8 8-8s8 3.6 8 8-3.6 8-8 8z"/></svg>