<svg xmlns="http://www.w3.org/2000/svg" viewBox="0 0 390 99.7"><g><path fill="#2D2E2D" d="M53 88.3c-.8-1.8-1.7-3.6-2.5-5.5-.2-.5-.6-.6-1-.8-1.8-1-3.4-2.3-4.6-4-2.3-3.2-2.9-6.9-2.5-10.7 0-.4.2-.9-.2-1.2-.2-.3-.5-.5-.7-.8-.4.1-.3.5-.4.8-.2 1.2-.3 2.5-.5 3.7-.2 1.1-.6 1.5-1.8 1.5h-2.3c-1.3 0-1.7-.4-1.9-1.6-.2-1.2-.3-2.4-.5-3.6-.1-.3 0-.7-.5-.8-.4.5-.6 1.1-.9 1.7-.4.2-.3.6-.3.9v2.2c-.2 4.7-1.9 8.7-6 11.4-.3.2-.7.4-.8.8-.1.3-.2.6-.4.9-1.8 3.8-3.5 7.6-5.3 11.4-.1.3-.3.6-.4 1-.5 1.6.2 3.2 1.6 3.9 1.5.7 3.3.2 4.1-1.2.2-.3.3-.6.4-.8 3.8-8.1 7.5-16.2 11.3-24.3.1-.3.2-.6.5-.8.1.3.3.5.4.7 3.7 7.8 7.3 15.6 11 23.5.2.4.3.7.5 1.1 1.4 2.3 4.6 2.3 6.1.2.8-1.2.8-2.5.2-3.8-.9-2.1-1.7-3.9-2.6-5.8zM76.8 15c-.2-.5-.4-.9-.9-1.1-8.1-3.8-16.2-7.6-24.4-11.4-.5-.2-.9-.4-1.4 0-.3.2-.6.4-1 .5-.5.2-.8.6-1 1.1C44 13 40 21.9 35.9 30.7c-.4 1-.4 1.9-.1 2.8.4 1 .8 1.9 1.3 2.9 1.3 2.6 2.6 5.2 3.7 7.9.7 1.7.8 3.5.5 5.3-.4 2.4-1.3 4.6-2.4 6.7-.3.6-.6 1.3-1.1 1.9-.5-1.2-.9-2.5-1.1-3.8-.2-1.3-.4-2.7-1.1-3.9-.3-.6-.3-.6-.9-.3-.4.2-.5.1-.6-.3-.1-.6-.3-1.1-.5-1.7-1.1-4.2-1.5-8.5-2-12.8-.6-5.4-1.1-10.9-1.9-16.3-.5-3.2-1.1-6.5-2.2-9.5-1.3-3.5-3.4-6.4-6.7-8.3C17.5-.6 14-.8 10.5.9c-.7.5-1.2.7-1.8.8-2.7.5-4.8 1.9-6.4 4C.1 8.5-.4 11.8.2 15.3c.5 3 1.8 5.7 3.6 8.2 2.1 2.9 4.5 5.6 6.9 8.2 4.4 4.7 8.9 9.2 13.2 13.9 1.8 2 3.5 4 4.9 6.3.5.8.5.8-.4 1.2-.3.2-.4.3-.2.7.5 1 .8 2 1.7 2.7.4.3.7.8 1 1.2.8 1 1.3 2.1 2 3.2.3-.1.4-.3.4-.5.2-.9.8-1.1 1.6-1.1h2.7c1.4 0 2.8-.3 4 .6l.3-.6c.9-2.2 1.9-4.3 3.2-6.2 1.5-2.2 3.5-3.8 6.2-4.4 2.3-.5 4.6-1.2 6.9-1.9 1.4-.4 2.9-.8 4.3-1.4.8-.3 1.3-.8 1.6-1.5 4-8.5 8-16.9 12.1-25.4.8-1.1 1-2.2.6-3.5zM15.6 1.5c2.6.1 4.7 1.2 6.5 2.9 2.5 2.3 3.9 5.3 4.7 8.5 1 4 1.6 8.1 2.1 12.1.4 3.4.8 6.9 1.1 10.4 0 .2 0 .5.1.9-.5-1.5-.7-2.8-1-4.1-1.4-6.2-2.8-12.3-4.3-18.4-.3-1.4-.6-2.8-1.2-4-1.2-2.8-3.3-4.7-6.1-6-1.5-.7-3.1-1.2-4.8-1.4-.3 0-.6 0-1-.2 1.4-.6 2.6-.7 3.9-.7zM27 30c-.3-.4-.4-.9-.5-1.3-1.6-4.9-3.1-9.7-4.8-14.6-.4-1-.7-2-1.1-3-.7-1.6-1.9-2.7-3.2-3.8C15.9 6 14.2 4.9 12.5 4c-.1-.1-.3-.1-.3-.3.8 0 1.5.2 2.2.4 2 .5 3.8 1.4 5.4 2.8 1.4 1.3 2.5 2.8 3 4.6 1.4 5.3 2.6 10.6 3.8 15.9.1.9.3 1.7.4 2.6zM13.1 6.2c1.9 1.2 3.8 2.4 5.2 4.1.5.6.9 1.2 1.1 1.9 2.2 5.9 4.1 12 6 18 .5 1.5 1 3.1 1.5 4.6 0 .1.1.3 0 .6-1-2.3-1.9-4.5-2.8-6.7-2.3-5.6-4.9-11.1-7.6-16.5-1.2-2.3-2.7-4.4-4.6-6.2l-.4-.4c.7 0 1.1.3 1.6.6zm-5.6-.8c.1.2 0 .4 0 .6 0 .2 0 .4-.1.6-.4 1.9-.5 3.7-.5 5.6 0 2 .5 3.9 1.5 5.7C11 22.5 14 27 16.8 31.6c.3.5.8 1 .9 1.7-.2 0-.2-.1-.3-.2-3.7-4.9-7.5-9.7-11-14.7-.9-1.4-1.4-2.9-1.5-4.5-.2-3 .8-5.7 2.3-8.2.1-.2.2-.2.3-.3zm12.1 33.4c-3-3.1-6-6.2-9-9.4-2-2.2-3.9-4.4-5.7-6.8-1.7-2.3-2.9-4.9-3.4-7.7-.4-2.9-.1-5.6 1.7-8 .8-1.1 1.7-2 2.9-2.6.2.3-.1.4-.2.5-1.1 2-2 4.2-2.3 6.6-.4 2.9.2 5.6 1.9 8 3.6 5.2 7.6 10.2 11.4 15.2l3 3.9c0 .3-.1.3-.3.3zm1.2-3.6C16.9 29.1 13 23 9.3 16.7c-.6-1-.9-2.2-1-3.3-.2-2.4.1-4.7.6-7 0-.1 0-.2.2-.2.1 1.2.3 2.5.5 3.7.4 1.9 1.1 3.6 1.9 5.4 2.9 6.7 6.2 13.1 9.6 19.6 0 .1 0 .3-.3.3zm10.1 15.2c-5.2-9.9-10.5-19.7-15.3-29.7-1.3-2.7-2.6-5.5-3.7-8.3-.6-1.6-1.2-4.1-1.2-5.7 1.1.9 1.9 1.9 2.6 2.9 1 1.3 1.7 2.7 2.4 4.2 3.8 7.5 7 15.3 10.3 23.1 1.8 4.4 3.7 8.9 5.5 13.3.2.4.4.9.4 1.5-.5-.5-.8-.8-1-1.3zm13.8-20.7c-.1.1-.1.3-.2.4-.1.3-.3.3-.5.2-.7-.3-1.5-.7-2.2-1-.4-.2-.4-.4-.2-.7.6-1.3 1.2-2.5 1.8-3.8C45.7 19.9 48 15 50.3 10c.1-.2.1-.6.5-.6.1.1.3.1.4.2.6.3 1.2.5 1.7.8.7.3.7.2.4 1-1.1 2.4-2.2 4.7-3.3 7.1-1.8 3.7-3.5 7.5-5.3 11.2zm5.9 3c-.3.6-.3.6-.9.3-.7-.3-1.3-.6-2-.9-.4-.2-.4-.3-.2-.7.6-1.3 1.2-2.6 1.9-4 2.3-4.8 4.5-9.7 6.8-14.5.5-1 .3-.9 1.2-.5.6.3 1.1.5 1.7.8.1.1.3.1.3.4 0 .1-.1.2-.2.4-2.8 6.2-5.7 12.4-8.6 18.7zm6.3 2.6c-.1.1-.1.3-.2.4-.1.3-.3.4-.6.3-.8-.4-1.7-.8-2.6-1.2 3.1-6.6 6.1-13.2 9.2-19.8.8.4 1.6.7 2.4 1.1.5.3.6.3.3.8-1 2.1-1.9 4.1-2.9 6.2-1.8 4.1-3.7 8.2-5.6 12.2zm12.3-10.8c-2.1 4.5-4.2 9.1-6.3 13.6-.1.2-.2.3-.2.5-.1.3-.3.4-.6.2-.7-.4-1.5-.7-2.2-1-.3-.1-.3-.3-.2-.5.2-.4.4-.8.5-1.2 2.7-5.8 5.4-11.7 8.2-17.5.1-.1.1-.3.2-.4.1-.3.3-.3.5-.2.8.4 1.7.8 2.6 1.2-.9 1.8-1.7 3.5-2.5 5.3z"/></g><path fill="#C32249" d="M50.5 82.9c-.6-.3-1.2-.6-1.7-1-3.6-2.2-5.7-5.4-6.4-9.6-.3-1.7-.4-3.4-.2-5.1v-1c.1-.4.2-.8.3-1.3.4 0 .7.3 1 .5 1.5 1 2.7 2.2 3.9 3.5.8.9 1.5 1.8 2.2 2.6.2.2.3.4.6.6-1.3-3.8-3.2-7-6.7-9.1 1.5 0 3 .1 4.4.5 6.2 1.8 9.9 5.9 11.3 12.2.6 2.7.7 5.4.4 8.1-.1.7-.1.7-.8.7-2.6-.2-5.2-.6-7.7-1.5-.2-.1-.4-.2-.6-.1zm-9-17.5c-.3 1-.3 2.1-.5 3.1l-.3 1.8c-.2.8-.7 1.2-1.5 1.3H36c-.9 0-1.4-.4-1.6-1.3-.2-1-.3-2-.5-3-.1-.6 0-1.3-.4-1.9.1-.6 0-1.2-.1-1.8-.1-.8-.1-1.7-.4-2.5V61c.5-1.7.5-1.8 2.3-1.8H40c.8 0 1.4.2 1.8.9.2 1.3-.1 2.6-.2 3.8 0 .4-.1 1-.1 1.5zM32.7 67c-.2.4-.1.8-.1 1.2.1 2.2-.1 4.3-.7 6.4-1 3.1-2.8 5.5-5.6 7.3-.2.2-.5.3-.7.5-1 .3-1.9.8-2.9 1.1-2.2.7-4.4 1-6.6 1.1-.7.1-.7 0-.8-.7-.4-3.8-.2-7.6 1.3-11.2 2.4-5.7 6.7-8.8 12.8-9.6.6-.1 1.3-.2 2-.1-.7.5-1.3.9-1.9 1.4-.6.5-1.1 1-1.6 1.6-.5.6-1 1.2-1.4 1.9-.4.6-.7 1.3-1.1 2-.3.7-.7 1.4-.7 2.2 2.2-2.6 4.4-5.4 7.4-7.2.4.6.1 1.4.6 2.1z"/><path fill="#2D2E2D" d="M104.8 74l-6.2-12.7-3.6 3.8V74h-7.5V35.5H95v21l9.3-10.7h9.1L104 56.2l9.2 17.8h-8.4z"/><path fill="#2D2E2D" d="M125.8 74.7c-2.3 0-4.3-.4-6.1-1.1-1.8-.7-3.3-1.7-4.6-3-1.2-1.3-2.2-2.9-2.8-4.7-.6-1.8-1-3.8-1-6s.3-4.2 1-6.1c.7-1.8 1.6-3.4 2.9-4.7 1.3-1.3 2.8-2.3 4.6-3 1.8-.7 3.8-1.1 6-1.1s4.2.4 6 1.1c1.8.7 3.3 1.7 4.5 3 1.2 1.3 2.2 2.8 2.9 4.7.7 1.8 1 3.9 1 6.1 0 2.3-.3 4.3-1 6.1-.7 1.8-1.6 3.4-2.9 4.7-1.2 1.3-2.7 2.3-4.5 3-1.8.7-3.8 1-6 1zm0-6.2c4.5 0 6.8-2.9 6.8-8.6 0-5.7-2.3-8.5-6.8-8.5s-6.8 2.8-6.8 8.5 2.3 8.6 6.8 8.6zm42.1-4.7c-.2 1.6-.7 3.1-1.4 4.5-.7 1.3-1.7 2.5-2.8 3.4-1.1 1-2.5 1.7-3.9 2.2-1.5.5-3.1.8-4.8.8-1.9 0-3.7-.3-5.2-.9-1.6-.6-2.9-1.6-4.1-2.9-1.1-1.3-2-2.9-2.7-4.8-.6-1.9-.9-4.1-.9-6.6s.3-4.7.9-6.5 1.5-3.3 2.7-4.5c1.1-1.2 2.5-2 4.2-2.6 1.6-.6 3.4-.9 5.4-.9 1.8 0 3.5.2 5 .7 1.5.5 2.8 1.2 4 2.2 1.1 1 2 2.1 2.7 3.4.6 1.3 1 2.8 1.1 4.5h-7.5c-.2-1.5-.8-2.6-1.7-3.4-1-.8-2.2-1.2-3.6-1.2-.8 0-1.5.1-2.2.4-.7.3-1.3.7-1.8 1.3s-.9 1.5-1.2 2.5c-.3 1.1-.5 2.3-.5 3.9 0 3.1.6 5.4 1.7 6.9s2.4 2.2 3.8 2.2 2.7-.4 3.7-1.2c1-.8 1.6-2 1.8-3.5h7.3zM187.8 74V56.5c0-2.1-.4-3.6-1.1-4.4-.7-.8-2-1.2-3.7-1.2-.9 0-1.7.2-2.5.5-.7.4-1.3.9-1.8 1.5s-.9 1.4-1.1 2.2c-.2.8-.4 1.7-.4 2.7V74h-7.4V35.5h7.4v14c.3-.6.7-1.2 1.2-1.7.6-.6 1.2-1 1.9-1.4.7-.4 1.5-.7 2.4-.9s1.8-.3 2.7-.3c2.9 0 5.3.8 7.1 2.4 1.8 1.6 2.7 3.8 2.7 6.6V74h-7.4z"/><path fill="#C32249" d="M199.8 74V51.1h-4.2v-5.3h4.2c0-6.9 4-10.3 12-10.3v6c-1 0-1.7.1-2.3.2-.6.1-1.1.4-1.4.7-.3.3-.6.8-.7 1.3-.1.6-.2 1.2-.2 2h4.8V51h-4.8v23h-7.4z"/><path fill="#C32249" d="M225.1 74.7c-2.3 0-4.3-.4-6.1-1.1-1.8-.7-3.3-1.7-4.6-3-1.2-1.3-2.2-2.9-2.8-4.7-.6-1.8-1-3.8-1-6s.3-4.2 1-6.1 1.6-3.4 2.9-4.7c1.3-1.3 2.8-2.3 4.6-3 1.8-.7 3.8-1.1 6-1.1s4.2.4 6 1.1c1.8.7 3.3 1.7 4.5 3 1.2 1.3 2.2 2.8 2.9 4.7.7 1.8 1 3.9 1 6.1 0 2.3-.3 4.3-1 6.1-.7 1.8-1.6 3.4-2.9 4.7-1.2 1.3-2.7 2.3-4.5 3-1.8.7-3.8 1-6 1zm0-6.2c4.5 0 6.8-2.9 6.8-8.6 0-5.7-2.3-8.5-6.8-8.5s-6.8 2.8-6.8 8.5 2.3 8.6 6.8 8.6zm34 5.5l-6.2-12.7-3.6 3.7v9h-7.5V35.5h7.5v21l9.3-10.7h9.1l-9.4 10.4 9.2 17.8h-8.4zm28.4 0v-4c-1.9 3.1-4.8 4.7-8.8 4.7-1.4 0-2.7-.2-3.9-.7s-2.2-1.2-3-2.1c-.8-.9-1.5-2-2-3.3-.5-1.3-.7-2.7-.7-4.2V45.8h7.4v17.4c0 3.5 1.6 5.3 4.8 5.3 1.9 0 3.3-.6 4.3-1.8 1-1.2 1.5-2.7 1.5-4.6V45.8h7.4V74h-7zm27-19.6c-.2-1.3-.7-2.2-1.5-2.8-.8-.6-2-.9-3.6-.9-1.5 0-2.7.2-3.5.5-.8.4-1.2 1-1.2 1.9 0 .8.4 1.4 1.2 1.8s1.9.9 3.4 1.3c2.4.7 4.5 1.3 6.2 1.7 1.7.5 3 1 4 1.7 1 .6 1.7 1.5 2.2 2.4.4 1 .7 2.3.7 3.9 0 2.5-1 4.6-3.1 6.3-2.1 1.7-5.2 2.5-9.3 2.5-2 0-3.9-.2-5.5-.7-1.6-.5-3-1.1-4.2-2-1.2-.9-2.1-1.9-2.7-3.1-.6-1.2-1-2.5-1-4h7.7c0 1.3.5 2.4 1.6 3.1 1 .7 2.4 1.1 4.1 1.1 1.4 0 2.6-.2 3.6-.7 1-.4 1.5-1.1 1.5-2 0-1-.4-1.8-1.1-2.2s-1.9-.9-3.4-1.2c-2.7-.6-5-1.2-6.6-1.9-1.7-.7-3-1.4-3.9-2.2-.9-.8-1.6-1.7-1.9-2.6-.3-1-.5-2-.5-3.2 0-1.1.2-2.1.7-3 .4-1 1.1-1.8 2.1-2.5s2.2-1.3 3.7-1.7c1.5-.4 3.4-.7 5.6-.7 4 0 7 .8 8.9 2.5 1.9 1.6 2.9 3.9 3.1 6.8h-7.3zm9.6 19.6v-7.7h8V74h-8zm28.8 0l-.1-3.4c-1.7 2.8-4.3 4.2-7.8 4.2-1.8 0-3.4-.3-4.9-1-1.5-.7-2.8-1.7-3.8-3-1.1-1.3-1.9-2.9-2.5-4.8-.6-1.9-.9-4-.9-6.4 0-2.1.3-4.1.8-5.9.5-1.8 1.3-3.3 2.3-4.6 1-1.3 2.2-2.3 3.6-3 1.4-.7 3.1-1.1 4.9-1.1 3.5 0 6.3 1.5 8.4 4.4v-14h7.3V74h-7.3zm-6.2-5.3c1.8 0 3.3-.7 4.5-2.2 1.2-1.5 1.8-3.4 1.8-5.8 0-6.1-2.1-9.2-6.2-9.2-4.3 0-6.4 2.9-6.4 8.7 0 2.5.6 4.6 1.8 6.2 1.1 1.5 2.6 2.3 4.5 2.3zm23.1-6.8c.1 2.1.7 3.8 1.9 5.1 1.1 1.3 2.6 1.9 4.4 1.9 1.2 0 2.3-.3 3.2-.8.9-.6 1.5-1.3 1.8-2.3h7.7c-.9 2.9-2.4 5.1-4.6 6.7-2.2 1.6-4.8 2.3-7.8 2.3-9.4 0-14.1-5.1-14.1-15.3 0-2.2.3-4.1.9-5.9.6-1.8 1.5-3.3 2.7-4.5s2.6-2.2 4.3-2.9c1.7-.7 3.6-1 5.8-1 4.4 0 7.6 1.4 9.9 4.2 2.2 2.8 3.3 7 3.3 12.6h-19.4zm11.8-4.7c0-1-.2-1.9-.5-2.7-.3-.8-.8-1.4-1.3-1.9s-1.1-.9-1.8-1.1c-.7-.2-1.4-.4-2.1-.4-1.5 0-2.8.5-3.9 1.6s-1.7 2.6-1.9 4.6h11.5z"/></svg>