<svg xmlns="http://www.w3.org/2000/svg" viewBox="0 0 244 244"><path fill="#C32149" d="M183.3 55.7h-16.6c-2.7 0-4.9 2.2-4.9 4.9v16.8c0 2.7 2.2 4.9 4.9 4.9h16.6c2.7 0 4.9-2.2 4.9-4.9V60.6c0-2.7-2.2-4.9-4.9-4.9z"/><circle fill="#C32149" cx="122" cy="122.7" r="23"/><path fill="#C32149" d="M122 0C54.6 0 0 54.6 0 122s54.6 122 122 122 122-54.6 122-122S189.4 0 122 0zm79.5 170.2c0 17.3-14 31.3-31.3 31.3h-96c-17.3 0-31.7-14-31.7-31.3v-68.1h44.7c-3.6 6-5.8 13-5.8 20.6 0 22.3 18.1 40.5 40.5 40.5s40.5-18.1 40.5-40.5c0-7.5-2.2-14.5-5.8-20.6h44.9v68.1zM90.6 122.7c0-9.3 4.2-17.7 10.7-23.4 2.3-2 4.9-3.7 7.7-5 4-1.8 8.3-2.8 12.9-2.8s9 1 12.9 2.8c2.8 1.3 5.4 3 7.7 5 6.5 5.7 10.6 14.1 10.6 23.4 0 17.2-14 31.2-31.2 31.2s-31.2-14-31.3-31.2zm110.9-27.2h-49.7c-7.7-8.4-18.5-13.2-29.9-13.2-11.4 0-22.2 4.7-29.9 13.2H42.6V73.8c0-10.4 5.2-19.6 13.2-25.3v27.1h6.6V44.8c2.1-.9 4.3-1.4 6.6-1.8v32.6h6.7V42.5h6.6v33.1h6.6V42.5h81.3c17.3 0 31.3 14 31.3 31.3v21.7z"/></svg>