<?xml version="1.0" encoding="utf-8"?>
<!-- Generator: Adobe Illustrator 21.1.0, SVG Export Plug-In . SVG Version: 6.00 Build 0)  -->
<svg version="1.1" id="Layer_1" xmlns="http://www.w3.org/2000/svg" xmlns:xlink="http://www.w3.org/1999/xlink" x="0px" y="0px"
	 viewBox="0 0 244 244" enable-background="new 0 0 244 244" xml:space="preserve">
<path fill="#C32149" d="M121.9,0.3C54.6,0.3,0,54.8,0,122.1c0,51.6,32.1,95.7,77.5,113.5c-1.1-9.6-2-24.4,0.4-34.9
	c2.2-9.5,14.3-60.6,14.3-60.6s-3.6-7.3-3.6-18.1c0-16.9,9.8-29.6,22-29.6c10.4,0,15.4,7.8,15.4,17.2c0,10.5-6.7,26.1-10.1,40.6
	c-2.9,12.1,6.1,22,18,22c21.7,0,38.3-22.8,38.3-55.8c0-29.2-21-49.6-50.9-49.6c-34.7,0-55,26-55,52.9c0,10.5,4,21.7,9.1,27.8
	c1,1.2,1.1,2.3,0.8,3.5l-3.4,13.8c-0.5,2.2-1.8,2.7-4.1,1.6C53.6,159.3,44,137.1,44,119.2c0-38.4,27.9-73.8,80.5-73.8
	c42.3,0,75.1,30.1,75.1,70.4c0,42-26.5,75.8-63.2,75.8c-12.3,0-24-6.4-27.9-14l-7.6,29c-2.8,10.6-10.2,23.9-15.2,31.9
	c11.4,3.5,23.5,5.4,36.1,5.4c67.3,0,121.9-54.6,121.9-121.9C243.7,54.8,189.2,0.3,121.9,0.3z"/>
</svg>
