<svg xmlns="http://www.w3.org/2000/svg" viewBox="0 0 244 244"><path fill="#C32149" d="M122 0C54.6 0 0 54.6 0 122s54.6 122 122 122 122-54.6 122-122S189.4 0 122 0zm63.3 89.6c2.1 45.9-32.1 97-92.7 97-18.4 0-35.6-5.4-50-14.7 17.3 2.1 34.6-2.8 48.3-13.5-14.3-.2-26.4-9.6-30.5-22.6 5.1.9 10.1.6 14.7-.6-15.7-3.2-26.6-17.3-26.2-32.4 4.4 2.5 9.5 3.9 14.8 4.1C49.2 97.2 45 78 53.6 63.3 69.7 83.1 93.7 96 120.8 97.4c-4.7-20.4 10.7-40 31.8-40 9.4 0 17.9 4 23.8 10.3 7.4-1.4 14.4-4.2 20.7-7.9-2.4 7.6-7.6 14-14.3 18 6.6-.8 12.9-2.5 18.7-5.1-4.4 6.5-9.9 12.3-16.2 16.9z"/></svg>