<?xml version="1.0" encoding="utf-8"?>
<!-- Generator: Adobe Illustrator 21.1.0, SVG Export Plug-In . SVG Version: 6.00 Build 0)  -->
<svg version="1.1" id="Layer_1" xmlns="http://www.w3.org/2000/svg" xmlns:xlink="http://www.w3.org/1999/xlink" x="0px" y="0px"
	 viewBox="0 0 244 244" enable-background="new 0 0 244 244" xml:space="preserve">
<g>
	<polygon fill="#C32149" points="102.1,148.5 155.1,121.9 102.1,95.5 	"/>
	<path fill="#C32149" d="M122,0C54.6,0,0,54.6,0,122s54.6,122,122,122s122-54.6,122-122S189.4,0,122,0z M172.4,180.4
		c-23.9,1.6-77.1,1.6-100.9,0c-25.8-1.8-28.8-17.4-29-58.4c0.2-41,3.3-56.6,29-58.4c23.9-1.6,77-1.6,100.9,0
		c25.9,1.8,28.9,17.4,29,58.4C201.3,163,198.2,178.6,172.4,180.4z"/>
</g>
</svg>
