<svg version="1" xmlns="http://www.w3.org/2000/svg" width="1026.667" height="1026.667" viewBox="0 0 770.000000 770.000000"><path d="M190 1.6c-7.3 1.5-16 4.5-23.5 8-2.7 1.3-9 3.3-14 4.4-5.3 1.2-12.9 4-18.5 6.7-7.9 3.9-11 6.2-18.6 13.8-13.8 13.7-22.1 28.7-24.9 44.7-.2 1.3-.7 3.6-1 5.3-.3 1.6-.6 8.2-.6 14.5 0 28.6 9.8 55.4 30.6 84 5.2 7.2 22.8 29.4 27.4 34.5 11.5 12.9 20.7 23 28.7 31.4 5 5.3 10.4 11 12 12.7 1.6 1.8 11.9 12.5 22.9 23.9 11 11.4 22.7 23.5 26 26.9 10.8 11.2 32.4 34.4 42.6 45.7 13.8 15.4 34.9 44.4 34.9 47.9 0 .9-1.8 2.6-3.9 3.8-3.2 1.8-3.8 2.6-3.3 4.5 1.3 5.4 8.8 17.6 14.1 23.2 6.1 6.4 11.1 13.4 18.4 25.7 5.3 9 5.5 9.6 6.2 17 .3 3 .8 6.6 1 7.9.3 1.3.7 5.1 1.1 8.4.5 5.6.3 6.5-3.2 12.9-4.1 7.6-4.7 7.5-5.7-1.5-1-8.2-1.2-8.3-7.8-3.9-7 4.8-17 13-21.8 18.1-9 9.2-16.1 17-22 24.2-3.5 4.2-6.6 7.7-6.8 7.7-2.4 0 7.7-22.2 15.6-34.3 6.1-9.3 18.2-21.8 26.8-27.5 9.1-6.2 9-6.6-1.3-5.8-10.5.8-28.8 4.7-38 8.2-27 10.2-46.6 27.3-61.1 53.4-6.2 11.2-13 31-14.8 43-.2 1.9-.9 6.2-1.4 9.5-1.4 8.3-.8 47.4.7 50.1.8 1.5 2 2.1 3.9 1.9 12.4-1.1 18.9-1.7 20.7-2.1 1.2-.2 4.1-.7 6.6-1 11.9-1.6 25.7-5.5 40.1-11.5 3.8-1.5 6.9-2.6 6.9-2.5 0 .9-25.1 55.2-37.7 81.6-10.4 21.8-11.5 26.3-8.9 35.2 5.1 17.3 28.1 23.3 40.7 10.7 4-4 6.6-9 20.9-39.9 10.6-23 12.2-26.5 16.5-35.5 2.4-5 5.6-11.9 7.3-15.5 1.6-3.6 4.9-10.6 7.2-15.5 2.3-5 6.8-14.6 10-21.5s7.9-17 10.5-22.5c2.6-5.5 6-12.7 7.5-16 6.2-13.5 9.2-20.1 13.6-29.2l4.5-9.6 1.7 2.9c1 1.6 3.7 7.2 6.1 12.4 6.2 13.4 14 30.1 24.1 51.5 2.9 6 6.6 13.9 8.2 17.5 6.5 14 12.8 27.5 21.8 46.5 2.1 4.4 5.4 11.6 7.5 16 24.6 52.9 25.6 54.5 35.5 59.6 6 3.1 16.5 3.2 23 .2 9.2-4.2 15.9-13.8 16.5-23.5.4-6.5-1.2-11.7-7.6-25.4-2.8-6-6.4-13.8-8.1-17.3-3.9-8.6-8.9-19.1-16-34.1-3.3-6.9-6.7-14.3-7.5-16.5-.9-2.2-2.1-4.6-2.6-5.3-1.9-2.5.2-2.3 9.5.7 10.7 3.5 15.3 4.6 28.1 6.6 1.7.3 4.3.7 5.7 1 10.4 1.8 22.9 2.3 23.9 1.1 1.3-1.7 2.3-13.7 2.3-27.8-.1-16.2-1.1-25.5-4.2-39.8-9-40.5-31.1-69.2-65.5-85.5-16-7.6-30.3-11.2-46.3-11.9-5.1-.2-9.1-.1-8.9.1.2.2 3.2 2.3 6.6 4.7 13.3 9.2 26.1 24.2 34.3 40.2 5.2 9.9 11 24.4 9.9 24.4-.4 0-5.3-5.6-11-12.5-16.2-19.6-33.9-36.3-43.9-41.4-3-1.6-3.9-.8-4.7 3.9-.4 2.2-.9 4-1.1 4-.3 0-1.6-1.2-2.9-2.8-2.2-2.4-2.4-3.4-1.9-8.2.3-3 .7-6.6 1-8 1-5.4 1.7-12.8 1.9-20.5.1-4.4.7-9.3 1.4-10.9 10-24.4 21.2-44.6 31.5-56.9 6.6-8 8.6-9.8 17.4-15.7 8.3-5.5 14.9-8.3 27.2-11.1 10.3-2.5 56.3-15.7 71.5-20.6 20.1-6.5 19.4-5.9 32-32.8 9-19.4 11.5-24.6 16.5-35 15.3-32 18-37.7 18-38 0-.2 3.6-7.9 8-17 4.5-9.2 9.6-19.9 11.4-23.8 4.5-9.6 12.5-26.4 22.6-47.2 11.8-24.5 12-25 12-36 0-14-.9-15.4-13.8-21.5-5.7-2.8-10.5-5-10.7-5-.2 0-5.4-2.4-11.7-5.4-6.2-2.9-24.6-11.5-40.8-19.1-16.2-7.5-33.1-15.4-37.5-17.5-4.4-2.1-10.5-4.9-13.5-6.3-9.1-4.2-19.8-9.2-33.4-15.6-7-3.4-13-6.1-13.1-6.1-.1 0-5.6-2.5-12.1-5.6-6.6-3.1-13-5.6-14.4-5.6-2.4 0-14.7 6-17.9 8.5-1.2 1-4.5 7.6-11.1 22.2-1.2 2.7-10.5 23-20.5 45s-19.3 42.2-20.5 45c-1.2 2.7-4 8.8-6.2 13.5-4.5 9.5-7.4 15.8-11.1 24-2.9 6.4-12.4 27.2-17.4 38-1.9 4.1-5.6 12-8.1 17.5-5.8 12.5-6.5 18.7-3.2 27.8 1.2 3.4 7.6 17.2 14.2 30.7 18.8 38.2 25.8 54.9 27.7 65.6 1.2 6.6 1.5 19.9.6 24.9-1.9 10.4-3 15-5.7 23.5-1.7 5.2-3.4 9.9-3.9 10.5-.5.5-.9 1.5-.9 2.3 0 2.1-14.9 32.2-15.9 32.2-1.2 0-4.8-9.5-6.6-17.4-1.6-6.8-1.9-8.7-4-20.1-1.6-9-5-18.3-8-22.1-1.8-2.3-2.3-2.4-5.3-1.3-1.9.6-3.7.8-4.2.3-.7-.8-4.6-12.9-5.5-17.3-.2-.9-1.3-5.5-2.4-10.3-1.1-4.7-2.3-10.1-2.6-12-.3-1.8-.7-4.4-1-5.8-.3-1.4-.7-4.1-1-6-.3-1.9-.7-4.6-1-6-.2-1.4-.7-4.5-1-7-.3-2.5-.8-5.6-1-7-.2-1.4-.7-4.8-1-7.5-.3-2.8-.8-6.4-1-8-.6-4.1-1.3-10.9-2-17.5-.3-3-1-8.9-1.5-13s-1.2-10-1.5-13c-.3-3-.8-7.1-1-9-.3-1.9-.7-5.8-.9-8.5-.3-2.8-.7-7-1-9.5-.3-2.5-1.1-9.2-1.6-15-.6-5.8-1.3-11.6-1.5-13-.2-1.4-.7-5-1-8-.6-5.5-.8-7.1-2-16.5-.6-5.6-1.5-11.7-2-15.5-.3-1.4-.7-4.3-.9-6.5-.3-2.2-.8-4.9-1-6-.2-1.1-.7-4-1-6.5-.7-4.9-1.4-9.1-2.1-13-1.3-6.5-1.6-7.7-2-10.5-2.9-17.1-11.3-44.4-18.1-58-15-30.3-40.7-52.7-68.9-60-9-2.4-26.8-2.8-35.5-.9zm22.5 10.8c22.3 1.7 44.7 15.7 60.6 37.7 12.4 17.1 18.7 32.1 25 59.4 3.5 14.9 6.7 32.2 8.8 47 2 14.2 2.3 16.4 3.6 25.5.2 1.4.6 5.2 1 8.5.3 3.3.8 7.1 1 8.5.2 1.4.6 5 .9 8 .6 6.2 2.4 22.7 3.1 28 .2 1.9.7 5.7 1 8.5.4 4.7.8 7.8 1.9 18.5 1.8 16.4 1.6 16.7-2 3-1.9-7.4-3.7-14.9-4-16.5-.3-1.7-.9-4.6-1.4-6.5-.5-1.9-1.1-4.6-1.4-6-1.2-6.1-20.3-88.8-23.1-100-.8-3-1.6-6.6-1.9-8-.8-4.7-10.7-43.5-11.5-45.5-4.5-10.8-6.1-13.9-9.9-19.8-10.3-15.8-26.5-28.4-47.4-36.6-8.5-3.4-21.9-7-28.8-7.8-7.6-.9-8.1-1.9-1.8-3.8 5.6-1.6 17.3-3.3 19.3-2.9.6.2 3.7.5 7 .8zm-8 21.7c22.2 6.9 39 18.8 50.2 35.5 4.5 6.8 6.5 11.2 9.2 20.4 2 6.5 14.1 55.2 15.5 62.2.2.7.6 2.4.9 3.8.4 1.4 1.6 6.5 2.7 11.5 1.2 4.9 2.5 10.8 3 13 7.6 32.2 11 47.8 10.6 48.2-.3.3-2.7-5.4-3.1-7.7-.3-1.7-14.6-45.2-25.2-77-19.3-57.7-22-63.9-33.5-76.2-9.7-10.3-32.5-27.1-46.7-34.3-3.5-1.7-5-3-4.2-3.5 1.7-1 8.5.4 20.6 4.1zm-67.5-.3c0 .4-.7 1.7-1.5 2.8-2.7 4-7.7 13.5-10.7 20.7-11.8 28.4-12.3 57-1.2 80.4 5 10.4 26.5 40.1 80 110.1 31.8 41.8 38.4 50.7 37.4 51-.6.2-4.1-2.7-7.8-6.6-3.7-3.8-15.3-15.9-25.8-26.8-10.5-11-21.9-22.9-25.3-26.5-3.4-3.7-7.7-8.3-9.7-10.4-13.9-14.8-34.5-39.7-45-54.5-12.7-17.8-21.1-35.4-24.3-51.2-.6-2.9-1.4-6.4-1.6-7.8-1.1-4.9-1.3-22.6-.4-28.8 2.1-14.6 9.6-30.3 19.6-40.7 4.3-4.6 6.2-6.2 12.8-11 2.2-1.6 3.5-1.9 3.5-.7zm9.5 11.2c-.3 1.1-.8 3.1-1.1 4.5-1.9 11.4-2.4 14.8-3 20.7-1 10-1.2 31.6-.3 36.3.4 2.2.9 5.3 1.2 7 .7 4.2 4.4 15.1 6.9 19.9 3.3 6.6 27.4 46.4 37.3 61.6 7.9 12.3 36.8 58.5 37.2 59.6 1.2 3.1-.9.8-8.8-9.9-4.6-6.1-8.6-11.4-8.9-11.7-2.4-2.3-55.7-73.7-64.5-86.4-11.1-16-14.6-26.2-15.1-43.1-.2-7.9.2-14.4 1.1-19 1.6-7.4 4.3-17 5.6-19.5.4-.8 2-4.2 3.4-7.5 3.5-8 7.3-14.5 8.6-14.5.6 0 .8.9.4 2zm46 4.7c21.6 13.5 37.8 28 43.1 38.6 5.3 10.4 19.6 51.8 42.4 122.7 5 15.7 11.4 35.4 14.1 43.8 2.8 8.5 4.8 15.6 4.6 15.8-.2.3-3.2-6.2-6.7-14.3-3.4-8.1-6.8-16.2-7.5-17.8-.8-1.7-3-7.1-5-12-3.6-8.7-11.2-26.8-14-33-.7-1.7-3.4-7.7-6-13.5-7.1-15.9-7-15.7-12.9-28.4-3.1-6.5-5.6-12-5.6-12.2 0-.3-5.8-12.2-13-26.7-16.5-33.4-25.8-47.8-41.4-64-7.6-7.8-5.9-7.6 7.9 1zm-33.1 6.1c1.7 20.2 8.5 42.2 22.8 74.2 12.4 27.6 53.8 111.7 67.2 136.5 1.8 3.4 2 4.5.7 4.5-.5 0-1.8-1.5-2.9-3.3-1.1-1.7-11.3-17.8-22.7-35.7-36.4-56.9-61.5-98.3-66.4-109.2-1.6-3.5-3.3-9.1-4-12.5-1.1-5.8-1.6-30.2-.7-34.8.3-1.7 1.8-13.1 2.1-16 .4-3.3 2.6-11.8 3-11.3.1.2.5 3.6.9 7.6zm17.7 1.9c13.7 14.4 21.5 26.4 35.9 55 16.8 33.6 26.9 55.4 43.8 94.9 10.1 23.4 42.7 101.5 57.4 137.4 1.7 4.1 3.6 8.8 4.3 10.5.8 1.6 2.3 5.5 3.5 8.5 1.2 3 2.8 7 3.6 8.7 5.1 11.8 9.4 22.9 9.4 24.4 0 3.2-6.4-5.3-11.6-15.5-3.1-6.1-6-11.6-6.4-12.1-.4-.6-3.8-6.9-7.5-14-10.2-19.5-17.9-34.2-29.5-56-2.1-3.9-6.7-12.6-10.3-19.5-3.5-6.9-8.8-17-11.7-22.5-8.8-16.7-45.2-89.3-50.7-101-8.7-18.6-13.4-28.7-16-35-1.4-3.3-3.3-7.8-4.3-10-3.6-8.1-7.9-19.2-9.9-25.8-3.4-11.2-7-32.7-5.4-32.7.5 0 2.9 2.1 5.4 4.7zm313.2 19.5c5.1 2.3 9.7 4.6 10.4 5.2 1.2 1.1-.1 4.4-12.4 30.6-3.5 7.5-14 30-19.3 41.5-1.5 3.3-4.9 10.5-7.5 16-2.6 5.5-5.8 12.5-7.2 15.5-1.4 3-5.9 12.7-10 21.5-4.2 8.8-8.6 18.4-9.9 21.2-1.5 3.2-3.1 5.3-4.1 5.3-.9 0-4.6-1.4-8.2-3.1-3.6-1.7-7.6-3.5-8.9-4-1.2-.5-2.5-1.6-2.9-2.4-.6-1.7 6.2-16.9 25.6-57.9 3.4-7 6.1-13 6.1-13.2 0-.1 3.2-6.9 7-15 3.9-8 7-14.8 7-14.9 0-.3 2.8-6.2 15.4-32.9 3.1-6.5 5.6-12.1 5.6-12.5 0-.9 3-5.1 3.6-5.1.3 0 4.7 1.9 9.7 4.2zm52.7 24.5c.8.4 2.2 1.2 3.1 2 1.5 1.2 1.5 1.8.4 4.1-.8 1.5-3.2 6.7-5.5 11.7-14.3 30.8-17.3 37.2-22.4 47.9-3.1 6.5-5.6 12-5.6 12.1 0 .2-2.3 5.2-5.1 11.1-5.3 11.3-9.4 19.9-14.9 31.9-1.8 3.8-5.5 11.7-8.1 17.4-2.7 5.7-4.9 10.6-4.9 11 0 .3-.9 1.7-1.9 3l-1.8 2.3-10.6-5c-5.9-2.8-10.7-5.3-10.7-5.6 0-.3 2.3-5.3 5-11.1 2.8-5.9 8.9-19.1 13.6-29.3 4.8-10.3 11.3-24.3 14.5-31.1 3.2-6.8 5.9-12.5 5.9-12.6 0-.2 2.5-5.6 5.6-12.1 3.1-6.6 7-14.8 8.6-18.4 3.2-6.7 7.2-15.5 12.8-27.5 4.7-10.2 4-9.9 12.8-5.8 4.2 1.9 8.4 3.7 9.2 4zm39.5 18.6c3.9 1.8 8.4 4 10.2 5l3.2 1.7-2.8 6.3c-1.6 3.4-4.4 9.6-6.4 13.7-5.4 11.5-10.7 23-13.2 28.5-1.3 2.7-4.5 9.7-7.2 15.5-2.8 5.8-6.2 13-7.6 16-1.4 3-7.8 16.7-14.2 30.5-6.4 13.7-13.3 28.5-15.3 32.7-1.9 4.3-4.1 7.8-4.8 7.8-1.1 0-20.3-8.5-21.1-9.4-.5-.5 2.9-8.1 14-31.6 7.9-16.9 34.5-73.7 43.4-93 10.5-22.7 12.7-27 13.7-27 .6 0 4.3 1.5 8.1 3.3zm51.8 24.1c4.2 2.1 7.6 4 7.3 4.4-.2.4-1.5 3.2-2.9 6.2-2.3 5.1-26.5 57-34.4 74-2 4.1-5 10.6-6.8 14.5-1.8 3.8-5 10.8-7.2 15.5-2.2 4.7-5.2 11-6.6 14-8.4 18.5-11.9 25.5-12.9 26.1-.9.6-19.1-7.2-21.1-9-.8-.8.4-4 7.3-18.6 2.3-5 5.5-11.7 7-15 1.5-3.3 4.7-10.1 7-15 5.6-11.8 11-23.3 15-32 6.3-13.7 7.9-17.2 14.4-30.9 3.6-7.6 6.6-14 6.6-14.1 0-.2 2.5-5.6 5.5-12 3-6.3 5.5-12 5.5-12.5 0-1.5 2.4-1.8 5.5-.5 1.7.7 6.5 2.9 10.8 4.9z"/></svg>