<svg xmlns="http://www.w3.org/2000/svg" viewBox="0 0 192 175.3"><path fill="#CCC" d="M148.9 19.6c0 4.2.1 8.5 0 12.7-.1 4.2-2.2 6.5-5.7 6.4-3.3 0-5.5-2.2-5.5-6.2-.1-8.7-.1-17.5 0-26.2.1-3.9 2.3-6.3 5.5-6.3 3.3-.1 5.6 2.5 5.7 6.5.1 4.4 0 8.8 0 13.1zm-95.5-.4c0 4.5.1 9 0 13.5-.1 3.9-2.2 6.1-5.5 6.2-3.3 0-5.6-2.2-5.7-6.1-.1-8.8-.1-17.7 0-26.5 0-3.9 2.4-6.3 5.6-6.3 3.3 0 5.6 2.5 5.6 6.5v12.7z"/><path fill="#CCC" d="M182.9 20.5c-4.4-3.2-9.4-4.5-14.8-4.5h-13v7.9c-.1 4.7.2 9.5-.3 14.2-.7 6.1-5.9 10-11.8 9.6-5.7-.4-10-4.7-10.3-10.9-.2-5.5-.1-11-.1-16.5v-4.2h-73v5.1c0 5.4.1 10.8-.1 16.1-.3 5.7-4.8 10-10.4 10.3-5.7.3-10.8-3.4-11.5-9.1-.6-4.2-.4-8.5-.4-12.7-.1-3.1 0-6.2 0-9.8-11.1 0-22.3-2.3-31 7.2-4.2 4.6-6 10-6 16.1 0 37.4-.1 74.7 0 112.1 0 11.9 6.6 20 18.2 23 .5.1.9.4 1.3.6h153c7.5-2 13.8-5.5 17.2-12.9.9-1.9 1.5-3.9 2.3-5.9V33.9c-2.2-4.9-4.5-9.9-9.3-13.4zM96.3 148.3c-17.9 0-25.4-2.3-29.5-9-2.5-4-2.9-6.1-2.9-17.3h9.4c0 8.2.7 11.6 2.8 13.8 2.5 2.8 7.4 3.9 17.7 3.9 10.4 0 15.5-.7 19.4-2.4 4.8-2.1 5.6-5.4 5.6-22.6 0-16.5-3.5-19.4-22.6-19.4-15.8 0-20.1 1.6-21.7 8.4h-9V58.8h59.7v8.4H75.5l-.5 27h.3c4.1-5.7 9.2-7.3 23.7-7.3 12 0 19.1 2 23.8 6.4 4.5 4.5 6.1 10.2 6.1 22.3-.1 27.3-5.6 32.7-32.6 32.7z"/></svg>